<?xml version="1.0" ?><svg xmlns="http://www.w3.org/2000/svg" xmlns:xlink="http://www.w3.org/1999/xlink" version="1.1" viewBox="0 0 512 512" style="enable-background:new 0 0 512 512;" xml:space="preserve"><g id="_x30_1_Data_Center_x2C__List_x2C__Menu_x2C__Browser_x2C__Seo_and_Web"><g><g><g><path style="fill:#FFFFFF;" d="M411.021,461.034v40.003h-40.003l-10.001-40.003      C377.685,444.645,394.353,444.645,411.021,461.034z"/><path style="fill:#FFFFFF;" d="M150.983,461.034l-10.001,40.003h-40.003l0-40.003      C117.647,444.645,134.315,444.645,150.983,461.034z"/><rect x="100.979" y="268.949" style="fill:#FFFFFF;" width="310.042" height="99.121"/><rect x="100.979" y="110.239" style="fill:#FFFFFF;" width="310.042" height="86.487"/><path style="fill:#FFFFFF;" d="M451.153,341.016c-22.034,0-340.226,0-350.174,0H60.847c-16.505,0-29.883,13.377-29.883,29.883      v60.253c0,16.505,13.377,29.883,29.883,29.883c64.369,0,339.863,0,390.306,0c16.505,0,29.883-13.377,29.883-29.883v-60.253      C481.036,354.393,467.658,341.016,451.153,341.016z"/><path style="fill:#CDDCF9;" d="M451.153,175.984c-16.445,0-381.04,0-390.306,0c-16.505,0-29.883,13.377-29.883,29.883v60.253      c0,16.505,13.377,29.883,29.883,29.883h40.132c12.429,0,332.766,0,350.174,0c16.505,0,29.883-13.377,29.883-29.883v-60.253      C481.036,189.362,467.658,175.984,451.153,175.984z"/><path style="fill:#FFFFFF;" d="M451.153,10.963H60.847c-16.505,0-29.883,13.377-29.883,29.883v60.253      c0,16.505,13.377,29.883,29.883,29.883h40.132c12.429,0,332.766,0,350.174,0c16.505,0,29.883-13.377,29.883-29.883V40.845      C481.036,24.34,467.658,10.963,451.153,10.963z"/><path style="fill:#FFFFFF;" d="M421.022,50.966c11.047,0,20.011,8.955,20.011,20.001c0,11.057-8.965,20.011-20.011,20.011      s-20.001-8.955-20.001-20.011C401.02,59.92,409.975,50.966,421.022,50.966z"/><path style="fill:#FFFFFF;" d="M421.022,215.997c11.047,0,20.011,8.955,20.011,20.001c0,11.047-8.965,20.001-20.011,20.001      s-20.001-8.955-20.001-20.001C401.02,224.952,409.975,215.997,421.022,215.997z"/><path style="fill:#FFFFFF;" d="M421.022,381.019c11.047,0,20.011,8.955,20.011,20.001c0,11.047-8.965,20.001-20.011,20.001      s-20.001-8.955-20.001-20.001C401.02,389.974,409.975,381.019,421.022,381.019z"/><path style="fill:#FFFFFF;" d="M341.016,50.966c11.047,0,20.001,8.955,20.001,20.001c0,11.057-8.955,20.011-20.001,20.011      s-20.001-8.955-20.001-20.011C321.015,59.92,329.969,50.966,341.016,50.966z"/><circle style="fill:#FFFFFF;" cx="341.016" cy="235.999" r="20.001"/><circle style="fill:#FFFFFF;" cx="341.016" cy="401.02" r="20.001"/></g></g><g><g><g id="XMLID_21_"><path style="fill:#487FE9;" d="M451.151,140.942H60.849c-21.969,0-39.843-17.874-39.843-39.843V40.845       c0-21.97,17.874-39.843,39.843-39.843h390.302c21.969,0,39.843,17.874,39.843,39.843v60.253       C490.995,123.068,473.121,140.942,451.151,140.942z M60.849,20.924c-10.985,0-19.922,8.937-19.922,19.922v60.253       c0,10.985,8.937,19.922,19.922,19.922h390.302c10.985,0,19.922-8.937,19.922-19.922V40.845       c0-10.985-8.937-19.922-19.922-19.922H60.849z"/></g><g id="XMLID_20_"><path style="fill:#487FE9;" d="M341.013,100.936c-16.522,0-29.963-13.442-29.963-29.964c0-16.522,13.441-29.964,29.963-29.964       c16.522,0,29.964,13.442,29.964,29.964C370.977,87.494,357.535,100.936,341.013,100.936z M341.013,60.93       c-5.537,0-10.042,4.505-10.042,10.043s4.505,10.042,10.042,10.042c5.538,0,10.043-4.505,10.043-10.042       S346.55,60.93,341.013,60.93z"/></g><g id="XMLID_19_"><path style="fill:#487FE9;" d="M421.025,100.936c-16.522,0-29.964-13.442-29.964-29.964c0-16.522,13.442-29.964,29.964-29.964       c16.522,0,29.963,13.442,29.963,29.964C450.989,87.494,437.547,100.936,421.025,100.936z M421.025,60.93       c-5.538,0-10.043,4.505-10.043,10.043s4.505,10.042,10.043,10.042c5.537,0,10.042-4.505,10.042-10.042       S426.562,60.93,421.025,60.93z"/></g><g id="XMLID_18_"><path style="fill:#487FE9;" d="M451.151,305.967H60.849c-21.969,0-39.843-17.874-39.843-39.843V205.87       c0-21.97,17.874-39.843,39.843-39.843h390.302c21.969,0,39.843,17.874,39.843,39.843v60.253       C490.995,288.093,473.121,305.967,451.151,305.967z M60.849,185.949c-10.985,0-19.922,8.937-19.922,19.922v60.253       c0,10.985,8.937,19.922,19.922,19.922h390.302c10.985,0,19.922-8.937,19.922-19.922V205.87       c0-10.985-8.937-19.922-19.922-19.922H60.849z"/></g><g id="XMLID_17_"><path style="fill:#487FE9;" d="M341.013,265.961c-16.522,0-29.963-13.441-29.963-29.964c0-16.522,13.441-29.964,29.963-29.964       c16.522,0,29.964,13.442,29.964,29.964C370.977,252.52,357.535,265.961,341.013,265.961z M341.013,225.955       c-5.537,0-10.042,4.505-10.042,10.042s4.505,10.042,10.042,10.042c5.538,0,10.043-4.505,10.043-10.042       S346.55,225.955,341.013,225.955z"/></g><g id="XMLID_16_"><path style="fill:#487FE9;" d="M421.025,265.961c-16.522,0-29.964-13.441-29.964-29.964c0-16.522,13.442-29.964,29.964-29.964       c16.522,0,29.963,13.442,29.963,29.964C450.989,252.52,437.547,265.961,421.025,265.961z M421.025,225.955       c-5.538,0-10.043,4.505-10.043,10.042s4.505,10.042,10.043,10.042c5.537,0,10.042-4.505,10.042-10.042       S426.562,225.955,421.025,225.955z"/></g><g id="XMLID_15_"><path style="fill:#487FE9;" d="M451.151,470.992H60.849c-21.969,0-39.843-17.874-39.843-39.843v-60.253       c0-21.969,17.874-39.843,39.843-39.843h390.302c21.969,0,39.843,17.874,39.843,39.843v60.253       C490.995,453.118,473.121,470.992,451.151,470.992z M60.849,350.974c-10.985,0-19.922,8.937-19.922,19.922v60.253       c0,10.985,8.937,19.922,19.922,19.922h390.302c10.985,0,19.922-8.937,19.922-19.922v-60.253       c0-10.985-8.937-19.922-19.922-19.922H60.849z"/></g><g id="XMLID_14_"><path style="fill:#487FE9;" d="M341.013,430.986c-16.522,0-29.963-13.442-29.963-29.964s13.441-29.964,29.963-29.964       c16.522,0,29.964,13.442,29.964,29.964S357.535,430.986,341.013,430.986z M341.013,390.979       c-5.537,0-10.042,4.505-10.042,10.043s4.505,10.043,10.042,10.043c5.538,0,10.043-4.505,10.043-10.043       S346.55,390.979,341.013,390.979z"/></g><g id="XMLID_13_"><path style="fill:#487FE9;" d="M421.025,430.986c-16.522,0-29.964-13.442-29.964-29.964s13.442-29.964,29.964-29.964       c16.522,0,29.963,13.442,29.963,29.964S437.547,430.986,421.025,430.986z M421.025,390.979       c-5.538,0-10.043,4.505-10.043,10.043s4.505,10.043,10.043,10.043c5.537,0,10.042-4.505,10.042-10.043       S426.562,390.979,421.025,390.979z"/></g><g id="XMLID_12_"><path style="fill:#487FE9;" d="M140.982,510.998h-40.006c-5.501,0-9.961-4.46-9.961-9.961v-40.006       c0-5.501,4.46-9.961,9.961-9.961h50.008c6.472,0,11.235,6.091,9.663,12.377l-10.002,40.006       C149.537,507.887,145.553,510.998,140.982,510.998z M110.937,491.076h22.268l5.021-20.084h-27.289V491.076z"/></g><g id="XMLID_11_"><path style="fill:#487FE9;" d="M411.024,510.998h-40.006c-4.571,0-8.555-3.111-9.663-7.545l-10.002-40.006       c-1.57-6.277,3.182-12.377,9.663-12.377h50.008c5.501,0,9.961,4.46,9.961,9.961v40.006       C420.985,506.538,416.525,510.998,411.024,510.998z M378.795,491.076h22.268v-20.084h-27.289L378.795,491.076z"/></g><g id="XMLID_10_"><path style="fill:#487FE9;" d="M180.989,60.93H70.972c-5.501,0-9.961-4.46-9.961-9.961s4.46-9.961,9.961-9.961h110.017       c5.501,0,9.961,4.46,9.961,9.961S186.49,60.93,180.989,60.93z"/></g><g id="XMLID_9_"><path style="fill:#487FE9;" d="M180.989,100.936H70.972c-5.501,0-9.961-4.46-9.961-9.961s4.46-9.961,9.961-9.961h110.017       c5.501,0,9.961,4.46,9.961,9.961S186.49,100.936,180.989,100.936z"/></g><g id="XMLID_8_"><path style="fill:#487FE9;" d="M180.989,225.955H70.972c-5.501,0-9.961-4.46-9.961-9.961c0-5.501,4.46-9.961,9.961-9.961       h110.017c5.501,0,9.961,4.46,9.961,9.961C190.95,221.495,186.49,225.955,180.989,225.955z"/></g><g id="XMLID_7_"><path style="fill:#487FE9;" d="M180.989,265.961H70.972c-5.501,0-9.961-4.46-9.961-9.961s4.46-9.961,9.961-9.961h110.017       c5.501,0,9.961,4.46,9.961,9.961S186.49,265.961,180.989,265.961z"/></g><g id="XMLID_6_"><path style="fill:#487FE9;" d="M180.989,390.979H70.972c-5.501,0-9.961-4.46-9.961-9.961c0-5.501,4.46-9.961,9.961-9.961       h110.017c5.501,0,9.961,4.46,9.961,9.961C190.95,386.519,186.49,390.979,180.989,390.979z"/></g><g id="XMLID_5_"><path style="fill:#487FE9;" d="M180.989,430.986H70.972c-5.501,0-9.961-4.46-9.961-9.961c0-5.501,4.46-9.961,9.961-9.961       h110.017c5.501,0,9.961,4.46,9.961,9.961C190.95,426.526,186.49,430.986,180.989,430.986z"/></g><g id="XMLID_4_"><path style="fill:#487FE9;" d="M100.976,185.949c-5.501,0-9.961-4.46-9.961-9.961v-45.007c0-5.501,4.46-9.961,9.961-9.961       s9.961,4.46,9.961,9.961v45.007C110.937,181.489,106.477,185.949,100.976,185.949z"/></g><g id="XMLID_3_"><path style="fill:#487FE9;" d="M411.024,185.949c-5.501,0-9.961-4.46-9.961-9.961v-45.007c0-5.501,4.46-9.961,9.961-9.961       c5.501,0,9.961,4.46,9.961,9.961v45.007C420.985,181.489,416.525,185.949,411.024,185.949z"/></g><g id="XMLID_2_"><path style="fill:#487FE9;" d="M100.976,350.974c-5.501,0-9.961-4.46-9.961-9.961v-45.007c0-5.501,4.46-9.961,9.961-9.961       s9.961,4.46,9.961,9.961v45.007C110.937,346.513,106.477,350.974,100.976,350.974z"/></g><g id="XMLID_1_"><path style="fill:#487FE9;" d="M411.024,350.974c-5.501,0-9.961-4.46-9.961-9.961v-45.007c0-5.501,4.46-9.961,9.961-9.961       c5.501,0,9.961,4.46,9.961,9.961v45.007C420.985,346.513,416.525,350.974,411.024,350.974z"/></g></g></g></g></g><g id="Layer_1"/></svg>